<svg width="112" height="48" viewBox="0 0 112 48" fill="none" xmlns="http://www.w3.org/2000/svg">
<mask id="path-1-outside-1_18_2" maskUnits="userSpaceOnUse" x="-0.111115" y="14.1111" width="111" height="34" fill="black">
<rect fill="white" x="-0.111115" y="14.1111" width="111" height="34"/>
<path d="M32.8623 19.573C32.8623 22.1757 31.2402 24.732 27.996 27.2418C24.92 29.6587 22.0123 30.8671 19.2727 30.8671C18.9603 30.8671 18.5998 30.7858 18.1913 30.6231C17.6867 30.4139 17.4223 30.1351 17.3983 29.7865C17.3983 29.3914 17.5905 29.008 17.975 28.6362C18.1673 28.4503 18.3595 28.3224 18.5518 28.2527C18.744 28.183 18.9363 28.1365 19.1285 28.1133C19.2487 28.4851 19.3448 28.7872 19.4169 29.0196C19.513 29.252 19.5851 29.4263 19.6332 29.5425C19.8014 29.6819 20.0778 29.7633 20.4623 29.7865C21.3033 29.7865 22.1444 29.6587 22.9855 29.4031C23.8266 29.1474 24.6917 28.7291 25.5809 28.1482C26.4941 27.5904 27.2631 27.0908 27.8879 26.6492C28.5367 26.1845 29.0294 25.7545 29.3658 25.3595C29.9425 24.732 30.3631 24.0349 30.6274 23.268C30.9158 22.5011 31.072 21.6529 31.096 20.7233C31.096 17.8649 29.2577 16.4357 25.5809 16.4357C22.3847 16.4357 18.9723 17.4234 15.3436 19.3987C13.5413 20.398 11.8951 21.5251 10.4052 22.78C8.91529 24.0116 7.56954 25.3943 6.36799 26.9281C3.79665 30.321 2.49897 33.7487 2.47494 37.2113C2.47494 39.8373 3.32805 41.9172 5.03426 43.451C6.74047 44.8686 9.10754 45.6122 12.1355 45.6819C12.9766 45.6819 13.8777 45.5773 14.839 45.3682C15.8242 45.1823 16.8936 44.8686 18.0471 44.427C18.5998 44.2411 19.1886 44.0203 19.8134 43.7647C20.4382 43.4858 21.1231 43.1837 21.8681 42.8584C22.9014 42.3007 23.5022 41.9986 23.6704 41.9521C23.8146 41.9521 23.8867 42.045 23.8867 42.2309C23.8867 42.6492 22.7813 43.3813 20.5704 44.427C18.6239 45.3101 16.8215 45.9608 15.1634 46.3791C13.5293 46.8206 12.0273 47.0646 10.6575 47.1111C7.77381 47.1111 5.40674 46.321 3.55634 44.7407C1.77804 43.1605 0.888885 41.0458 0.888885 38.3965C0.888885 34.748 2.31874 31.053 5.17844 27.3115C6.52419 25.5686 8.02613 23.9768 9.68428 22.536C11.3665 21.0951 13.2409 19.7938 15.3076 18.6318C19.2967 16.2847 23.1177 15.1111 26.7704 15.1111C28.5247 15.1111 29.9786 15.5294 31.1321 16.366C32.2375 17.1561 32.8143 18.2251 32.8623 19.573Z"/>
<path d="M45.2235 39.3377C45.2235 39.5236 45.1755 39.6514 45.0793 39.7211C43.8538 40.7436 42.8084 41.5919 41.9433 42.2658C41.0782 42.9165 40.3933 43.4045 39.8886 43.7299C38.663 44.52 37.5576 45.1126 36.5723 45.5076C35.587 45.9259 34.6979 46.1351 33.9049 46.1351C32.6072 46.1351 31.9223 45.1939 31.8502 43.3116C31.2734 43.7763 30.4444 44.276 29.363 44.8105C28.3296 45.345 27.4645 45.6122 26.7676 45.6122C26.287 45.6122 25.8424 45.496 25.4339 45.2636C25.0254 45.0777 24.8211 44.7988 24.8211 44.427C24.8211 43.3813 25.7943 42.1264 27.7409 40.6623C28.7502 39.9419 29.6754 39.3958 30.5165 39.024C31.3816 38.6521 32.1866 38.4662 32.9316 38.4662C33.8208 38.4662 34.2773 38.6754 34.3014 39.0937C34.3014 39.5585 34.1572 39.8954 33.8688 40.1046C33.5804 40.3137 33.268 40.4183 32.9316 40.4183C32.9316 40.3951 32.9196 40.3486 32.8956 40.2789C32.8715 40.2324 32.8475 40.1859 32.8235 40.1394C32.7994 40.0697 32.7634 39.9884 32.7153 39.8954C32.5711 39.5701 32.2828 39.3842 31.8502 39.3377C30.889 39.3377 29.8075 39.8489 28.606 40.8715C27.3804 41.8475 26.7676 42.7306 26.7676 43.5207C26.7676 44.0087 26.9478 44.2643 27.3083 44.2876C28.582 44.2876 29.9397 43.8112 31.3816 42.8584C31.694 42.6492 32.2347 42.138 33.0037 41.3246C33.4843 40.7436 33.8928 40.4764 34.2293 40.5229C34.5417 40.5229 34.6979 40.6391 34.6979 40.8715C34.6979 41.0806 34.4936 41.5338 34.0851 42.2309C33.7006 42.8816 33.5083 43.358 33.5083 43.6601C33.5083 44.52 33.9529 44.9615 34.8421 44.9848C35.9235 44.9848 37.6537 44.1946 40.0328 42.6144C40.3452 42.4285 40.8979 42.0566 41.691 41.4989C42.484 40.9412 43.5413 40.1859 44.8631 39.2331C44.9111 39.1866 44.9832 39.1634 45.0793 39.1634C45.1755 39.1634 45.2235 39.2215 45.2235 39.3377Z"/>
<path d="M62.0621 39.3726C62.0621 39.512 62.0141 39.6398 61.9179 39.756C59.5869 41.6151 57.9528 42.8468 57.0156 43.451C54.8288 44.8918 52.9423 45.6122 51.3563 45.6122C50.0105 45.6122 49.3256 44.915 49.3016 43.5207C49.3016 43.2651 49.3256 42.9513 49.3737 42.5795C49.4458 42.1845 49.5539 41.7197 49.6981 41.1852C48.7849 41.6964 47.8477 42.2309 46.8865 42.7887C45.9492 43.3232 44.976 43.9158 43.9667 44.5665C42.5488 45.4728 41.7798 45.9259 41.6597 45.9259C41.6357 45.9259 41.5395 45.8795 41.3713 45.7865C41.2271 45.7168 41.155 45.6354 41.155 45.5425C41.155 45.3798 41.2632 45.1126 41.4795 44.7407C41.6717 44.3689 42.0081 43.8577 42.4888 43.207C42.9934 42.4866 43.3899 41.9172 43.6783 41.4989C43.9907 41.0574 44.207 40.7436 44.3271 40.5577C44.231 40.4183 44.183 40.2208 44.183 39.9651C44.183 39.7792 44.3392 39.5817 44.6516 39.3726C44.988 39.1866 45.2523 39.0821 45.4446 39.0588C46.2136 39.0588 46.6221 39.3609 46.6702 39.9651C46.6702 40.1278 46.2857 40.7204 45.5167 41.7429C45.1562 42.1845 44.8438 42.5563 44.5795 42.8584C44.3392 43.1605 44.1229 43.4045 43.9306 43.5904C48.4966 40.5694 51.4404 39.0588 52.7621 39.0588C52.8822 39.0588 52.9784 39.2099 53.0505 39.512C53.0505 39.5585 52.678 39.9884 51.933 40.8017C51.2361 41.6383 50.8756 42.4285 50.8516 43.1721C50.8516 44.0087 51.4644 44.4386 52.69 44.4619C53.6032 44.4619 55.1291 43.7647 57.2679 42.3704C57.6764 42.138 59.1423 41.0922 61.6656 39.2331C61.7377 39.2099 61.8218 39.1983 61.9179 39.1983C61.99 39.1983 62.0381 39.2564 62.0621 39.3726Z"/>
<path d="M85.1239 24.2092C85.1239 26.045 82.0359 29.6819 75.8599 35.1198C74.7784 36.0029 73.4327 37.0603 71.8226 38.2919C70.2366 39.5236 68.3381 40.9412 66.1272 42.5447C66.4156 44.3341 67.3528 45.252 68.9389 45.2985C69.9722 45.2985 71.4622 44.764 73.4087 43.695C74.6823 42.9978 76.1723 42.0102 77.8785 40.732C79.2482 39.6863 79.9692 39.1634 80.0413 39.1634C80.1855 39.1634 80.2576 39.2564 80.2576 39.4423C80.2576 39.6049 79.2723 40.4648 77.3017 42.0218C76.3885 42.719 75.5955 43.2999 74.9226 43.7647C74.2498 44.2295 73.685 44.6013 73.2284 44.8802C71.5222 45.833 69.9602 46.3326 68.5424 46.3791C66.8362 46.3791 65.7067 45.3217 65.154 43.207C64.6253 43.4858 64.0966 43.7647 63.5679 44.0436C63.0392 44.3224 62.4985 44.6129 61.9458 44.915C61.3691 45.1707 60.7923 45.3566 60.2156 45.4728C59.6388 45.6122 59.0741 45.7052 58.5214 45.7516C57.9927 45.7516 57.5241 45.589 57.1156 45.2636C56.7311 44.9615 56.5388 44.5548 56.5388 44.0436C56.5388 43.207 57.2117 42.2426 58.5574 41.1503C60.4799 39.6398 62.3303 38.8497 64.1086 38.78C64.4691 38.78 64.8175 38.9078 65.154 39.1634C65.4183 39.3028 65.5505 39.5352 65.5505 39.8606C65.5505 40.4415 65.3462 40.7669 64.9377 40.8366C64.8656 40.8366 64.7695 40.7436 64.6493 40.5577C64.6253 40.4415 64.6013 40.337 64.5772 40.244C64.5532 40.1511 64.5172 40.0465 64.4691 39.9303C64.397 39.7211 63.9644 39.6166 63.1714 39.6166C62.1621 39.6166 60.8644 40.3834 59.2784 41.9172C58.9419 42.2426 58.7016 42.5563 58.5574 42.8584C58.3892 43.1373 58.2931 43.4161 58.2691 43.695C58.2691 44.2527 58.6536 44.5432 59.4226 44.5665C59.6869 44.5665 60.0474 44.5084 60.5039 44.3922C60.9605 44.2527 61.5012 44.0436 62.1261 43.7647C62.6788 43.5323 63.1954 43.2999 63.6761 43.0675C64.1807 42.8119 64.6613 42.533 65.1179 42.2309C65.3102 41.4873 65.5505 40.7785 65.8389 40.1046C66.1272 39.4306 66.4637 38.7567 66.8482 38.0828C66.8962 38.0131 67.0524 37.7691 67.3168 37.3508C67.6052 36.9092 68.0257 36.2934 68.5784 35.5033C69.6118 33.9695 70.7052 32.5171 71.8587 31.146C73.0362 29.7516 74.3339 28.4038 75.7517 27.1024C78.9959 24.0813 81.5913 22.5476 83.5378 22.5011C84.5711 22.5011 85.0998 23.0704 85.1239 24.2092ZM83.6459 24.2092C83.6459 23.6282 83.3215 23.3145 82.6727 23.268C81.5913 23.268 79.825 24.337 77.3738 26.4749C76.1482 27.5207 74.9707 28.6594 73.8412 29.8911C72.7358 31.0995 71.6664 32.4125 70.6331 33.8301C68.3261 36.7814 66.8602 39.3609 66.2354 41.5686C67.9897 40.3137 69.6478 39.0937 71.2098 37.9085C72.7959 36.7001 74.3098 35.4917 75.7517 34.2832C77.7944 32.5868 79.5847 30.7741 81.1227 28.8453C82.7568 26.8003 83.5979 25.2549 83.6459 24.2092Z"/>
<path d="M95.2127 22.9543C95.2127 24.9296 93.4464 27.7647 89.9138 31.4597C87.703 33.7371 85.2158 36.0029 82.4522 38.2571C81.539 38.9543 80.5537 39.6979 79.4963 40.488C78.463 41.2781 77.3095 42.1147 76.0359 42.9978C76.0599 43.4858 76.4684 43.939 77.2614 44.3573C77.9584 44.7291 78.7754 44.915 79.7126 44.915C81.4909 44.915 83.5696 44.1598 85.9487 42.6492C86.0689 42.5563 86.5134 42.2309 87.2824 41.6732C88.0514 41.1155 89.1809 40.3021 90.6708 39.2331C90.7429 39.1866 90.839 39.1634 90.9592 39.1634C91.0313 39.1634 91.0673 39.2331 91.0673 39.3726C91.0673 39.5352 91.0313 39.663 90.9592 39.756C89.8778 40.6158 88.9045 41.3711 88.0394 42.0218C87.1743 42.6492 86.3933 43.1721 85.6964 43.5904C83.1971 45.0545 80.9863 45.7981 79.0638 45.8214C75.7955 45.8214 74.1374 44.5781 74.0893 42.0915C74.0893 39.907 75.2909 37.0487 77.694 33.5163C80.001 30.2397 82.6444 27.3813 85.6243 24.9412C88.7243 22.3617 91.2476 21.0719 93.1941 21.0719C93.7708 21.0719 94.2515 21.2578 94.636 21.6296C95.0205 21.9782 95.2127 22.4198 95.2127 22.9543ZM93.5546 23.3377C93.5546 22.4081 92.9418 21.9898 91.7162 22.0828C91.0433 22.1293 90.2262 22.4314 89.265 22.9891C88.3038 23.5236 87.1743 24.3486 85.8766 25.4641C84.5789 26.5098 83.4014 27.5904 82.344 28.7059C81.3107 29.7981 80.3735 30.9368 79.5324 32.122C78.427 33.679 77.5018 35.4336 76.7568 37.3856C76.156 38.9891 75.8196 40.3137 75.7475 41.3595C75.7475 41.6616 75.8076 41.9056 75.9277 42.0915C76.5766 41.7894 77.9944 40.7901 80.1812 39.0937C82.7766 37.0254 85.1557 34.9688 87.3185 32.9238C89.4092 30.9484 90.8871 29.3333 91.7522 28.0784C92.9538 26.382 93.5546 24.8017 93.5546 23.3377Z"/>
<path d="M99.2069 39.3726C99.2069 39.512 99.1588 39.6398 99.0627 39.756C97.813 40.7785 96.7557 41.6151 95.8906 42.2658C95.0254 42.9165 94.3406 43.4045 93.8359 43.7299C91.4328 45.2869 89.258 46.0886 87.3114 46.1351C85.6533 46.1351 84.8122 45.3101 84.7882 43.6601C84.7882 42.6376 85.401 41.4408 86.6266 40.0697C87.9242 38.7683 89.0297 38.106 89.9429 38.0828C90.2553 38.0828 90.5316 38.199 90.7719 38.4314C90.9882 38.6173 91.1204 38.8497 91.1684 39.1285C91.1684 39.5468 90.9522 39.9651 90.5196 40.3834C90.2793 40.5694 90.051 40.7553 89.8347 40.9412C89.6184 41.1039 89.3901 41.2781 89.1498 41.4641C88.4289 42.0683 87.5037 42.6376 86.3742 43.1721C86.3502 43.7299 86.5905 44.1946 87.0952 44.5665C87.5037 44.8221 87.9483 44.9499 88.4289 44.9499C89.6785 44.9499 91.5409 44.1714 94.0161 42.6144C94.2564 42.4517 94.7731 42.0915 95.5661 41.5338C96.3592 40.976 97.4406 40.1975 98.8103 39.1983C98.8824 39.175 98.9665 39.1634 99.0627 39.1634C99.1348 39.1634 99.1828 39.2331 99.2069 39.3726ZM89.5824 39.512C89.5824 39.3958 89.4262 39.3028 89.1138 39.2331C88.7053 39.2331 88.1645 39.5933 87.4917 40.3137C86.8188 40.9644 86.4824 41.5454 86.4824 42.0566C86.6025 42.0566 86.8188 41.9986 87.1312 41.8824C88.6932 40.9993 89.5103 40.2092 89.5824 39.512Z"/>
<path d="M110.222 39.3726C110.222 39.512 110.174 39.6398 110.078 39.756C107.29 41.9637 105.584 43.2651 104.959 43.6601C102.484 45.1939 99.7927 45.984 96.8849 46.0305C95.9958 46.0305 95.2869 45.8562 94.7582 45.5076C94.5659 45.4147 94.1334 45.0428 93.4605 44.3922C93.4605 44.2295 93.4845 44.1017 93.5326 44.0087C93.1241 44.2411 92.7396 44.4503 92.3791 44.6362C91.9946 44.8221 91.6221 44.9848 91.2616 45.1242C90.8531 45.1242 90.6368 45.0661 90.6128 44.9499C90.6128 44.8802 90.6489 44.7988 90.721 44.7059C90.769 44.6129 90.8531 44.4851 90.9733 44.3224C92.1027 43.7879 93.2683 43.1489 94.4698 42.4052C95.6473 41.6383 96.8729 40.7669 98.1466 39.7909C98.1466 39.7676 98.1586 39.7328 98.1826 39.6863C98.8555 39.175 99.5764 38.8962 100.345 38.8497C101.547 38.8497 102.148 39.3726 102.148 40.4183C102.148 41.1155 101.775 41.9405 101.03 42.8932C100.381 43.7531 99.7326 44.3689 99.0838 44.7407C100.574 44.7407 102.532 43.9971 104.959 42.5098C105.512 42.2077 106.185 41.7894 106.978 41.2549C107.771 40.6972 108.72 40.0116 109.826 39.1983C109.898 39.175 109.982 39.1634 110.078 39.1634C110.15 39.1634 110.198 39.2331 110.222 39.3726ZM100.418 40.8715C100.418 40.2905 100.105 40 99.4803 40C99.3361 40 99.2039 40 99.0838 40C98.9636 40 98.8675 40.0232 98.7954 40.0697C97.8822 40.8134 97.0411 41.4873 96.2721 42.0915C95.4791 42.6725 94.7462 43.1954 94.0733 43.6601C94.1934 43.6601 94.3016 43.6834 94.3977 43.7299C95.2148 44.2179 95.9117 44.4851 96.4884 44.5316C96.9931 44.5316 97.4857 44.427 97.9663 44.2179C98.447 43.9855 98.8915 43.6253 99.3001 43.1373C99.6605 42.7422 99.9249 42.3704 100.093 42.0218C100.261 41.65 100.369 41.2665 100.418 40.8715Z"/>
</mask>
<path d="M32.8623 19.573C32.8623 22.1757 31.2402 24.732 27.996 27.2418C24.92 29.6587 22.0123 30.8671 19.2727 30.8671C18.9603 30.8671 18.5998 30.7858 18.1913 30.6231C17.6867 30.4139 17.4223 30.1351 17.3983 29.7865C17.3983 29.3914 17.5905 29.008 17.975 28.6362C18.1673 28.4503 18.3595 28.3224 18.5518 28.2527C18.744 28.183 18.9363 28.1365 19.1285 28.1133C19.2487 28.4851 19.3448 28.7872 19.4169 29.0196C19.513 29.252 19.5851 29.4263 19.6332 29.5425C19.8014 29.6819 20.0778 29.7633 20.4623 29.7865C21.3033 29.7865 22.1444 29.6587 22.9855 29.4031C23.8266 29.1474 24.6917 28.7291 25.5809 28.1482C26.4941 27.5904 27.2631 27.0908 27.8879 26.6492C28.5367 26.1845 29.0294 25.7545 29.3658 25.3595C29.9425 24.732 30.3631 24.0349 30.6274 23.268C30.9158 22.5011 31.072 21.6529 31.096 20.7233C31.096 17.8649 29.2577 16.4357 25.5809 16.4357C22.3847 16.4357 18.9723 17.4234 15.3436 19.3987C13.5413 20.398 11.8951 21.5251 10.4052 22.78C8.91529 24.0116 7.56954 25.3943 6.36799 26.9281C3.79665 30.321 2.49897 33.7487 2.47494 37.2113C2.47494 39.8373 3.32805 41.9172 5.03426 43.451C6.74047 44.8686 9.10754 45.6122 12.1355 45.6819C12.9766 45.6819 13.8777 45.5773 14.839 45.3682C15.8242 45.1823 16.8936 44.8686 18.0471 44.427C18.5998 44.2411 19.1886 44.0203 19.8134 43.7647C20.4382 43.4858 21.1231 43.1837 21.8681 42.8584C22.9014 42.3007 23.5022 41.9986 23.6704 41.9521C23.8146 41.9521 23.8867 42.045 23.8867 42.2309C23.8867 42.6492 22.7813 43.3813 20.5704 44.427C18.6239 45.3101 16.8215 45.9608 15.1634 46.3791C13.5293 46.8206 12.0273 47.0646 10.6575 47.1111C7.77381 47.1111 5.40674 46.321 3.55634 44.7407C1.77804 43.1605 0.888885 41.0458 0.888885 38.3965C0.888885 34.748 2.31874 31.053 5.17844 27.3115C6.52419 25.5686 8.02613 23.9768 9.68428 22.536C11.3665 21.0951 13.2409 19.7938 15.3076 18.6318C19.2967 16.2847 23.1177 15.1111 26.7704 15.1111C28.5247 15.1111 29.9786 15.5294 31.1321 16.366C32.2375 17.1561 32.8143 18.2251 32.8623 19.573Z" fill="#967BA6"/>
<path d="M45.2235 39.3377C45.2235 39.5236 45.1755 39.6514 45.0793 39.7211C43.8538 40.7436 42.8084 41.5919 41.9433 42.2658C41.0782 42.9165 40.3933 43.4045 39.8886 43.7299C38.663 44.52 37.5576 45.1126 36.5723 45.5076C35.587 45.9259 34.6979 46.1351 33.9049 46.1351C32.6072 46.1351 31.9223 45.1939 31.8502 43.3116C31.2734 43.7763 30.4444 44.276 29.363 44.8105C28.3296 45.345 27.4645 45.6122 26.7676 45.6122C26.287 45.6122 25.8424 45.496 25.4339 45.2636C25.0254 45.0777 24.8211 44.7988 24.8211 44.427C24.8211 43.3813 25.7943 42.1264 27.7409 40.6623C28.7502 39.9419 29.6754 39.3958 30.5165 39.024C31.3816 38.6521 32.1866 38.4662 32.9316 38.4662C33.8208 38.4662 34.2773 38.6754 34.3014 39.0937C34.3014 39.5585 34.1572 39.8954 33.8688 40.1046C33.5804 40.3137 33.268 40.4183 32.9316 40.4183C32.9316 40.3951 32.9196 40.3486 32.8956 40.2789C32.8715 40.2324 32.8475 40.1859 32.8235 40.1394C32.7994 40.0697 32.7634 39.9884 32.7153 39.8954C32.5711 39.5701 32.2828 39.3842 31.8502 39.3377C30.889 39.3377 29.8075 39.8489 28.606 40.8715C27.3804 41.8475 26.7676 42.7306 26.7676 43.5207C26.7676 44.0087 26.9478 44.2643 27.3083 44.2876C28.582 44.2876 29.9397 43.8112 31.3816 42.8584C31.694 42.6492 32.2347 42.138 33.0037 41.3246C33.4843 40.7436 33.8928 40.4764 34.2293 40.5229C34.5417 40.5229 34.6979 40.6391 34.6979 40.8715C34.6979 41.0806 34.4936 41.5338 34.0851 42.2309C33.7006 42.8816 33.5083 43.358 33.5083 43.6601C33.5083 44.52 33.9529 44.9615 34.8421 44.9848C35.9235 44.9848 37.6537 44.1946 40.0328 42.6144C40.3452 42.4285 40.8979 42.0566 41.691 41.4989C42.484 40.9412 43.5413 40.1859 44.8631 39.2331C44.9111 39.1866 44.9832 39.1634 45.0793 39.1634C45.1755 39.1634 45.2235 39.2215 45.2235 39.3377Z" fill="#967BA6"/>
<path d="M62.0621 39.3726C62.0621 39.512 62.0141 39.6398 61.9179 39.756C59.5869 41.6151 57.9528 42.8468 57.0156 43.451C54.8288 44.8918 52.9423 45.6122 51.3563 45.6122C50.0105 45.6122 49.3256 44.915 49.3016 43.5207C49.3016 43.2651 49.3256 42.9513 49.3737 42.5795C49.4458 42.1845 49.5539 41.7197 49.6981 41.1852C48.7849 41.6964 47.8477 42.2309 46.8865 42.7887C45.9492 43.3232 44.976 43.9158 43.9667 44.5665C42.5488 45.4728 41.7798 45.9259 41.6597 45.9259C41.6357 45.9259 41.5395 45.8795 41.3713 45.7865C41.2271 45.7168 41.155 45.6354 41.155 45.5425C41.155 45.3798 41.2632 45.1126 41.4795 44.7407C41.6717 44.3689 42.0081 43.8577 42.4888 43.207C42.9934 42.4866 43.3899 41.9172 43.6783 41.4989C43.9907 41.0574 44.207 40.7436 44.3271 40.5577C44.231 40.4183 44.183 40.2208 44.183 39.9651C44.183 39.7792 44.3392 39.5817 44.6516 39.3726C44.988 39.1866 45.2523 39.0821 45.4446 39.0588C46.2136 39.0588 46.6221 39.3609 46.6702 39.9651C46.6702 40.1278 46.2857 40.7204 45.5167 41.7429C45.1562 42.1845 44.8438 42.5563 44.5795 42.8584C44.3392 43.1605 44.1229 43.4045 43.9306 43.5904C48.4966 40.5694 51.4404 39.0588 52.7621 39.0588C52.8822 39.0588 52.9784 39.2099 53.0505 39.512C53.0505 39.5585 52.678 39.9884 51.933 40.8017C51.2361 41.6383 50.8756 42.4285 50.8516 43.1721C50.8516 44.0087 51.4644 44.4386 52.69 44.4619C53.6032 44.4619 55.1291 43.7647 57.2679 42.3704C57.6764 42.138 59.1423 41.0922 61.6656 39.2331C61.7377 39.2099 61.8218 39.1983 61.9179 39.1983C61.99 39.1983 62.0381 39.2564 62.0621 39.3726Z" fill="#967BA6"/>
<path d="M85.1239 24.2092C85.1239 26.045 82.0359 29.6819 75.8599 35.1198C74.7784 36.0029 73.4327 37.0603 71.8226 38.2919C70.2366 39.5236 68.3381 40.9412 66.1272 42.5447C66.4156 44.3341 67.3528 45.252 68.9389 45.2985C69.9722 45.2985 71.4622 44.764 73.4087 43.695C74.6823 42.9978 76.1723 42.0102 77.8785 40.732C79.2482 39.6863 79.9692 39.1634 80.0413 39.1634C80.1855 39.1634 80.2576 39.2564 80.2576 39.4423C80.2576 39.6049 79.2723 40.4648 77.3017 42.0218C76.3885 42.719 75.5955 43.2999 74.9226 43.7647C74.2498 44.2295 73.685 44.6013 73.2284 44.8802C71.5222 45.833 69.9602 46.3326 68.5424 46.3791C66.8362 46.3791 65.7067 45.3217 65.154 43.207C64.6253 43.4858 64.0966 43.7647 63.5679 44.0436C63.0392 44.3224 62.4985 44.6129 61.9458 44.915C61.3691 45.1707 60.7923 45.3566 60.2156 45.4728C59.6388 45.6122 59.0741 45.7052 58.5214 45.7516C57.9927 45.7516 57.5241 45.589 57.1156 45.2636C56.7311 44.9615 56.5388 44.5548 56.5388 44.0436C56.5388 43.207 57.2117 42.2426 58.5574 41.1503C60.4799 39.6398 62.3303 38.8497 64.1086 38.78C64.4691 38.78 64.8175 38.9078 65.154 39.1634C65.4183 39.3028 65.5505 39.5352 65.5505 39.8606C65.5505 40.4415 65.3462 40.7669 64.9377 40.8366C64.8656 40.8366 64.7695 40.7436 64.6493 40.5577C64.6253 40.4415 64.6013 40.337 64.5772 40.244C64.5532 40.1511 64.5172 40.0465 64.4691 39.9303C64.397 39.7211 63.9644 39.6166 63.1714 39.6166C62.1621 39.6166 60.8644 40.3834 59.2784 41.9172C58.9419 42.2426 58.7016 42.5563 58.5574 42.8584C58.3892 43.1373 58.2931 43.4161 58.2691 43.695C58.2691 44.2527 58.6536 44.5432 59.4226 44.5665C59.6869 44.5665 60.0474 44.5084 60.5039 44.3922C60.9605 44.2527 61.5012 44.0436 62.1261 43.7647C62.6788 43.5323 63.1954 43.2999 63.6761 43.0675C64.1807 42.8119 64.6613 42.533 65.1179 42.2309C65.3102 41.4873 65.5505 40.7785 65.8389 40.1046C66.1272 39.4306 66.4637 38.7567 66.8482 38.0828C66.8962 38.0131 67.0524 37.7691 67.3168 37.3508C67.6052 36.9092 68.0257 36.2934 68.5784 35.5033C69.6118 33.9695 70.7052 32.5171 71.8587 31.146C73.0362 29.7516 74.3339 28.4038 75.7517 27.1024C78.9959 24.0813 81.5913 22.5476 83.5378 22.5011C84.5711 22.5011 85.0998 23.0704 85.1239 24.2092ZM83.6459 24.2092C83.6459 23.6282 83.3215 23.3145 82.6727 23.268C81.5913 23.268 79.825 24.337 77.3738 26.4749C76.1482 27.5207 74.9707 28.6594 73.8412 29.8911C72.7358 31.0995 71.6664 32.4125 70.6331 33.8301C68.3261 36.7814 66.8602 39.3609 66.2354 41.5686C67.9897 40.3137 69.6478 39.0937 71.2098 37.9085C72.7959 36.7001 74.3098 35.4917 75.7517 34.2832C77.7944 32.5868 79.5847 30.7741 81.1227 28.8453C82.7568 26.8003 83.5979 25.2549 83.6459 24.2092Z" fill="#967BA6"/>
<path d="M95.2127 22.9543C95.2127 24.9296 93.4464 27.7647 89.9138 31.4597C87.703 33.7371 85.2158 36.0029 82.4522 38.2571C81.539 38.9543 80.5537 39.6979 79.4963 40.488C78.463 41.2781 77.3095 42.1147 76.0359 42.9978C76.0599 43.4858 76.4684 43.939 77.2614 44.3573C77.9584 44.7291 78.7754 44.915 79.7126 44.915C81.4909 44.915 83.5696 44.1598 85.9487 42.6492C86.0689 42.5563 86.5134 42.2309 87.2824 41.6732C88.0514 41.1155 89.1809 40.3021 90.6708 39.2331C90.7429 39.1866 90.839 39.1634 90.9592 39.1634C91.0313 39.1634 91.0673 39.2331 91.0673 39.3726C91.0673 39.5352 91.0313 39.663 90.9592 39.756C89.8778 40.6158 88.9045 41.3711 88.0394 42.0218C87.1743 42.6492 86.3933 43.1721 85.6964 43.5904C83.1971 45.0545 80.9863 45.7981 79.0638 45.8214C75.7955 45.8214 74.1374 44.5781 74.0893 42.0915C74.0893 39.907 75.2909 37.0487 77.694 33.5163C80.001 30.2397 82.6444 27.3813 85.6243 24.9412C88.7243 22.3617 91.2476 21.0719 93.1941 21.0719C93.7708 21.0719 94.2515 21.2578 94.636 21.6296C95.0205 21.9782 95.2127 22.4198 95.2127 22.9543ZM93.5546 23.3377C93.5546 22.4081 92.9418 21.9898 91.7162 22.0828C91.0433 22.1293 90.2262 22.4314 89.265 22.9891C88.3038 23.5236 87.1743 24.3486 85.8766 25.4641C84.5789 26.5098 83.4014 27.5904 82.344 28.7059C81.3107 29.7981 80.3735 30.9368 79.5324 32.122C78.427 33.679 77.5018 35.4336 76.7568 37.3856C76.156 38.9891 75.8196 40.3137 75.7475 41.3595C75.7475 41.6616 75.8076 41.9056 75.9277 42.0915C76.5766 41.7894 77.9944 40.7901 80.1812 39.0937C82.7766 37.0254 85.1557 34.9688 87.3185 32.9238C89.4092 30.9484 90.8871 29.3333 91.7522 28.0784C92.9538 26.382 93.5546 24.8017 93.5546 23.3377Z" fill="#967BA6"/>
<path d="M99.2069 39.3726C99.2069 39.512 99.1588 39.6398 99.0627 39.756C97.813 40.7785 96.7557 41.6151 95.8906 42.2658C95.0254 42.9165 94.3406 43.4045 93.8359 43.7299C91.4328 45.2869 89.258 46.0886 87.3114 46.1351C85.6533 46.1351 84.8122 45.3101 84.7882 43.6601C84.7882 42.6376 85.401 41.4408 86.6266 40.0697C87.9242 38.7683 89.0297 38.106 89.9429 38.0828C90.2553 38.0828 90.5316 38.199 90.7719 38.4314C90.9882 38.6173 91.1204 38.8497 91.1684 39.1285C91.1684 39.5468 90.9522 39.9651 90.5196 40.3834C90.2793 40.5694 90.051 40.7553 89.8347 40.9412C89.6184 41.1039 89.3901 41.2781 89.1498 41.4641C88.4289 42.0683 87.5037 42.6376 86.3742 43.1721C86.3502 43.7299 86.5905 44.1946 87.0952 44.5665C87.5037 44.8221 87.9483 44.9499 88.4289 44.9499C89.6785 44.9499 91.5409 44.1714 94.0161 42.6144C94.2564 42.4517 94.7731 42.0915 95.5661 41.5338C96.3592 40.976 97.4406 40.1975 98.8103 39.1983C98.8824 39.175 98.9665 39.1634 99.0627 39.1634C99.1348 39.1634 99.1828 39.2331 99.2069 39.3726ZM89.5824 39.512C89.5824 39.3958 89.4262 39.3028 89.1138 39.2331C88.7053 39.2331 88.1645 39.5933 87.4917 40.3137C86.8188 40.9644 86.4824 41.5454 86.4824 42.0566C86.6025 42.0566 86.8188 41.9986 87.1312 41.8824C88.6932 40.9993 89.5103 40.2092 89.5824 39.512Z" fill="#967BA6"/>
<path d="M110.222 39.3726C110.222 39.512 110.174 39.6398 110.078 39.756C107.29 41.9637 105.584 43.2651 104.959 43.6601C102.484 45.1939 99.7927 45.984 96.8849 46.0305C95.9958 46.0305 95.2869 45.8562 94.7582 45.5076C94.5659 45.4147 94.1334 45.0428 93.4605 44.3922C93.4605 44.2295 93.4845 44.1017 93.5326 44.0087C93.1241 44.2411 92.7396 44.4503 92.3791 44.6362C91.9946 44.8221 91.6221 44.9848 91.2616 45.1242C90.8531 45.1242 90.6368 45.0661 90.6128 44.9499C90.6128 44.8802 90.6489 44.7988 90.721 44.7059C90.769 44.6129 90.8531 44.4851 90.9733 44.3224C92.1027 43.7879 93.2683 43.1489 94.4698 42.4052C95.6473 41.6383 96.8729 40.7669 98.1466 39.7909C98.1466 39.7676 98.1586 39.7328 98.1826 39.6863C98.8555 39.175 99.5764 38.8962 100.345 38.8497C101.547 38.8497 102.148 39.3726 102.148 40.4183C102.148 41.1155 101.775 41.9405 101.03 42.8932C100.381 43.7531 99.7326 44.3689 99.0838 44.7407C100.574 44.7407 102.532 43.9971 104.959 42.5098C105.512 42.2077 106.185 41.7894 106.978 41.2549C107.771 40.6972 108.72 40.0116 109.826 39.1983C109.898 39.175 109.982 39.1634 110.078 39.1634C110.15 39.1634 110.198 39.2331 110.222 39.3726ZM100.418 40.8715C100.418 40.2905 100.105 40 99.4803 40C99.3361 40 99.2039 40 99.0838 40C98.9636 40 98.8675 40.0232 98.7954 40.0697C97.8822 40.8134 97.0411 41.4873 96.2721 42.0915C95.4791 42.6725 94.7462 43.1954 94.0733 43.6601C94.1934 43.6601 94.3016 43.6834 94.3977 43.7299C95.2148 44.2179 95.9117 44.4851 96.4884 44.5316C96.9931 44.5316 97.4857 44.427 97.9663 44.2179C98.447 43.9855 98.8915 43.6253 99.3001 43.1373C99.6605 42.7422 99.9249 42.3704 100.093 42.0218C100.261 41.65 100.369 41.2665 100.418 40.8715Z" fill="#967BA6"/>
<path d="M32.8623 19.573C32.8623 22.1757 31.2402 24.732 27.996 27.2418C24.92 29.6587 22.0123 30.8671 19.2727 30.8671C18.9603 30.8671 18.5998 30.7858 18.1913 30.6231C17.6867 30.4139 17.4223 30.1351 17.3983 29.7865C17.3983 29.3914 17.5905 29.008 17.975 28.6362C18.1673 28.4503 18.3595 28.3224 18.5518 28.2527C18.744 28.183 18.9363 28.1365 19.1285 28.1133C19.2487 28.4851 19.3448 28.7872 19.4169 29.0196C19.513 29.252 19.5851 29.4263 19.6332 29.5425C19.8014 29.6819 20.0778 29.7633 20.4623 29.7865C21.3033 29.7865 22.1444 29.6587 22.9855 29.4031C23.8266 29.1474 24.6917 28.7291 25.5809 28.1482C26.4941 27.5904 27.2631 27.0908 27.8879 26.6492C28.5367 26.1845 29.0294 25.7545 29.3658 25.3595C29.9425 24.732 30.3631 24.0349 30.6274 23.268C30.9158 22.5011 31.072 21.6529 31.096 20.7233C31.096 17.8649 29.2577 16.4357 25.5809 16.4357C22.3847 16.4357 18.9723 17.4234 15.3436 19.3987C13.5413 20.398 11.8951 21.5251 10.4052 22.78C8.91529 24.0116 7.56954 25.3943 6.36799 26.9281C3.79665 30.321 2.49897 33.7487 2.47494 37.2113C2.47494 39.8373 3.32805 41.9172 5.03426 43.451C6.74047 44.8686 9.10754 45.6122 12.1355 45.6819C12.9766 45.6819 13.8777 45.5773 14.839 45.3682C15.8242 45.1823 16.8936 44.8686 18.0471 44.427C18.5998 44.2411 19.1886 44.0203 19.8134 43.7647C20.4382 43.4858 21.1231 43.1837 21.8681 42.8584C22.9014 42.3007 23.5022 41.9986 23.6704 41.9521C23.8146 41.9521 23.8867 42.045 23.8867 42.2309C23.8867 42.6492 22.7813 43.3813 20.5704 44.427C18.6239 45.3101 16.8215 45.9608 15.1634 46.3791C13.5293 46.8206 12.0273 47.0646 10.6575 47.1111C7.77381 47.1111 5.40674 46.321 3.55634 44.7407C1.77804 43.1605 0.888885 41.0458 0.888885 38.3965C0.888885 34.748 2.31874 31.053 5.17844 27.3115C6.52419 25.5686 8.02613 23.9768 9.68428 22.536C11.3665 21.0951 13.2409 19.7938 15.3076 18.6318C19.2967 16.2847 23.1177 15.1111 26.7704 15.1111C28.5247 15.1111 29.9786 15.5294 31.1321 16.366C32.2375 17.1561 32.8143 18.2251 32.8623 19.573Z" stroke="#967BA6" stroke-width="0.177778" mask="url(#path-1-outside-1_18_2)"/>
<path d="M45.2235 39.3377C45.2235 39.5236 45.1755 39.6514 45.0793 39.7211C43.8538 40.7436 42.8084 41.5919 41.9433 42.2658C41.0782 42.9165 40.3933 43.4045 39.8886 43.7299C38.663 44.52 37.5576 45.1126 36.5723 45.5076C35.587 45.9259 34.6979 46.1351 33.9049 46.1351C32.6072 46.1351 31.9223 45.1939 31.8502 43.3116C31.2734 43.7763 30.4444 44.276 29.363 44.8105C28.3296 45.345 27.4645 45.6122 26.7676 45.6122C26.287 45.6122 25.8424 45.496 25.4339 45.2636C25.0254 45.0777 24.8211 44.7988 24.8211 44.427C24.8211 43.3813 25.7943 42.1264 27.7409 40.6623C28.7502 39.9419 29.6754 39.3958 30.5165 39.024C31.3816 38.6521 32.1866 38.4662 32.9316 38.4662C33.8208 38.4662 34.2773 38.6754 34.3014 39.0937C34.3014 39.5585 34.1572 39.8954 33.8688 40.1046C33.5804 40.3137 33.268 40.4183 32.9316 40.4183C32.9316 40.3951 32.9196 40.3486 32.8956 40.2789C32.8715 40.2324 32.8475 40.1859 32.8235 40.1394C32.7994 40.0697 32.7634 39.9884 32.7153 39.8954C32.5711 39.5701 32.2828 39.3842 31.8502 39.3377C30.889 39.3377 29.8075 39.8489 28.606 40.8715C27.3804 41.8475 26.7676 42.7306 26.7676 43.5207C26.7676 44.0087 26.9478 44.2643 27.3083 44.2876C28.582 44.2876 29.9397 43.8112 31.3816 42.8584C31.694 42.6492 32.2347 42.138 33.0037 41.3246C33.4843 40.7436 33.8928 40.4764 34.2293 40.5229C34.5417 40.5229 34.6979 40.6391 34.6979 40.8715C34.6979 41.0806 34.4936 41.5338 34.0851 42.2309C33.7006 42.8816 33.5083 43.358 33.5083 43.6601C33.5083 44.52 33.9529 44.9615 34.8421 44.9848C35.9235 44.9848 37.6537 44.1946 40.0328 42.6144C40.3452 42.4285 40.8979 42.0566 41.691 41.4989C42.484 40.9412 43.5413 40.1859 44.8631 39.2331C44.9111 39.1866 44.9832 39.1634 45.0793 39.1634C45.1755 39.1634 45.2235 39.2215 45.2235 39.3377Z" stroke="#967BA6" stroke-width="0.177778" mask="url(#path-1-outside-1_18_2)"/>
<path d="M62.0621 39.3726C62.0621 39.512 62.0141 39.6398 61.9179 39.756C59.5869 41.6151 57.9528 42.8468 57.0156 43.451C54.8288 44.8918 52.9423 45.6122 51.3563 45.6122C50.0105 45.6122 49.3256 44.915 49.3016 43.5207C49.3016 43.2651 49.3256 42.9513 49.3737 42.5795C49.4458 42.1845 49.5539 41.7197 49.6981 41.1852C48.7849 41.6964 47.8477 42.2309 46.8865 42.7887C45.9492 43.3232 44.976 43.9158 43.9667 44.5665C42.5488 45.4728 41.7798 45.9259 41.6597 45.9259C41.6357 45.9259 41.5395 45.8795 41.3713 45.7865C41.2271 45.7168 41.155 45.6354 41.155 45.5425C41.155 45.3798 41.2632 45.1126 41.4795 44.7407C41.6717 44.3689 42.0081 43.8577 42.4888 43.207C42.9934 42.4866 43.3899 41.9172 43.6783 41.4989C43.9907 41.0574 44.207 40.7436 44.3271 40.5577C44.231 40.4183 44.183 40.2208 44.183 39.9651C44.183 39.7792 44.3392 39.5817 44.6516 39.3726C44.988 39.1866 45.2523 39.0821 45.4446 39.0588C46.2136 39.0588 46.6221 39.3609 46.6702 39.9651C46.6702 40.1278 46.2857 40.7204 45.5167 41.7429C45.1562 42.1845 44.8438 42.5563 44.5795 42.8584C44.3392 43.1605 44.1229 43.4045 43.9306 43.5904C48.4966 40.5694 51.4404 39.0588 52.7621 39.0588C52.8822 39.0588 52.9784 39.2099 53.0505 39.512C53.0505 39.5585 52.678 39.9884 51.933 40.8017C51.2361 41.6383 50.8756 42.4285 50.8516 43.1721C50.8516 44.0087 51.4644 44.4386 52.69 44.4619C53.6032 44.4619 55.1291 43.7647 57.2679 42.3704C57.6764 42.138 59.1423 41.0922 61.6656 39.2331C61.7377 39.2099 61.8218 39.1983 61.9179 39.1983C61.99 39.1983 62.0381 39.2564 62.0621 39.3726Z" stroke="#967BA6" stroke-width="0.177778" mask="url(#path-1-outside-1_18_2)"/>
<path d="M85.1239 24.2092C85.1239 26.045 82.0359 29.6819 75.8599 35.1198C74.7784 36.0029 73.4327 37.0603 71.8226 38.2919C70.2366 39.5236 68.3381 40.9412 66.1272 42.5447C66.4156 44.3341 67.3528 45.252 68.9389 45.2985C69.9722 45.2985 71.4622 44.764 73.4087 43.695C74.6823 42.9978 76.1723 42.0102 77.8785 40.732C79.2482 39.6863 79.9692 39.1634 80.0413 39.1634C80.1855 39.1634 80.2576 39.2564 80.2576 39.4423C80.2576 39.6049 79.2723 40.4648 77.3017 42.0218C76.3885 42.719 75.5955 43.2999 74.9226 43.7647C74.2498 44.2295 73.685 44.6013 73.2284 44.8802C71.5222 45.833 69.9602 46.3326 68.5424 46.3791C66.8362 46.3791 65.7067 45.3217 65.154 43.207C64.6253 43.4858 64.0966 43.7647 63.5679 44.0436C63.0392 44.3224 62.4985 44.6129 61.9458 44.915C61.3691 45.1707 60.7923 45.3566 60.2156 45.4728C59.6388 45.6122 59.0741 45.7052 58.5214 45.7516C57.9927 45.7516 57.5241 45.589 57.1156 45.2636C56.7311 44.9615 56.5388 44.5548 56.5388 44.0436C56.5388 43.207 57.2117 42.2426 58.5574 41.1503C60.4799 39.6398 62.3303 38.8497 64.1086 38.78C64.4691 38.78 64.8175 38.9078 65.154 39.1634C65.4183 39.3028 65.5505 39.5352 65.5505 39.8606C65.5505 40.4415 65.3462 40.7669 64.9377 40.8366C64.8656 40.8366 64.7695 40.7436 64.6493 40.5577C64.6253 40.4415 64.6013 40.337 64.5772 40.244C64.5532 40.1511 64.5172 40.0465 64.4691 39.9303C64.397 39.7211 63.9644 39.6166 63.1714 39.6166C62.1621 39.6166 60.8644 40.3834 59.2784 41.9172C58.9419 42.2426 58.7016 42.5563 58.5574 42.8584C58.3892 43.1373 58.2931 43.4161 58.2691 43.695C58.2691 44.2527 58.6536 44.5432 59.4226 44.5665C59.6869 44.5665 60.0474 44.5084 60.5039 44.3922C60.9605 44.2527 61.5012 44.0436 62.1261 43.7647C62.6788 43.5323 63.1954 43.2999 63.6761 43.0675C64.1807 42.8119 64.6613 42.533 65.1179 42.2309C65.3102 41.4873 65.5505 40.7785 65.8389 40.1046C66.1272 39.4306 66.4637 38.7567 66.8482 38.0828C66.8962 38.0131 67.0524 37.7691 67.3168 37.3508C67.6052 36.9092 68.0257 36.2934 68.5784 35.5033C69.6118 33.9695 70.7052 32.5171 71.8587 31.146C73.0362 29.7516 74.3339 28.4038 75.7517 27.1024C78.9959 24.0813 81.5913 22.5476 83.5378 22.5011C84.5711 22.5011 85.0998 23.0704 85.1239 24.2092ZM83.6459 24.2092C83.6459 23.6282 83.3215 23.3145 82.6727 23.268C81.5913 23.268 79.825 24.337 77.3738 26.4749C76.1482 27.5207 74.9707 28.6594 73.8412 29.8911C72.7358 31.0995 71.6664 32.4125 70.6331 33.8301C68.3261 36.7814 66.8602 39.3609 66.2354 41.5686C67.9897 40.3137 69.6478 39.0937 71.2098 37.9085C72.7959 36.7001 74.3098 35.4917 75.7517 34.2832C77.7944 32.5868 79.5847 30.7741 81.1227 28.8453C82.7568 26.8003 83.5979 25.2549 83.6459 24.2092Z" stroke="#967BA6" stroke-width="0.177778" mask="url(#path-1-outside-1_18_2)"/>
<path d="M95.2127 22.9543C95.2127 24.9296 93.4464 27.7647 89.9138 31.4597C87.703 33.7371 85.2158 36.0029 82.4522 38.2571C81.539 38.9543 80.5537 39.6979 79.4963 40.488C78.463 41.2781 77.3095 42.1147 76.0359 42.9978C76.0599 43.4858 76.4684 43.939 77.2614 44.3573C77.9584 44.7291 78.7754 44.915 79.7126 44.915C81.4909 44.915 83.5696 44.1598 85.9487 42.6492C86.0689 42.5563 86.5134 42.2309 87.2824 41.6732C88.0514 41.1155 89.1809 40.3021 90.6708 39.2331C90.7429 39.1866 90.839 39.1634 90.9592 39.1634C91.0313 39.1634 91.0673 39.2331 91.0673 39.3726C91.0673 39.5352 91.0313 39.663 90.9592 39.756C89.8778 40.6158 88.9045 41.3711 88.0394 42.0218C87.1743 42.6492 86.3933 43.1721 85.6964 43.5904C83.1971 45.0545 80.9863 45.7981 79.0638 45.8214C75.7955 45.8214 74.1374 44.5781 74.0893 42.0915C74.0893 39.907 75.2909 37.0487 77.694 33.5163C80.001 30.2397 82.6444 27.3813 85.6243 24.9412C88.7243 22.3617 91.2476 21.0719 93.1941 21.0719C93.7708 21.0719 94.2515 21.2578 94.636 21.6296C95.0205 21.9782 95.2127 22.4198 95.2127 22.9543ZM93.5546 23.3377C93.5546 22.4081 92.9418 21.9898 91.7162 22.0828C91.0433 22.1293 90.2262 22.4314 89.265 22.9891C88.3038 23.5236 87.1743 24.3486 85.8766 25.4641C84.5789 26.5098 83.4014 27.5904 82.344 28.7059C81.3107 29.7981 80.3735 30.9368 79.5324 32.122C78.427 33.679 77.5018 35.4336 76.7568 37.3856C76.156 38.9891 75.8196 40.3137 75.7475 41.3595C75.7475 41.6616 75.8076 41.9056 75.9277 42.0915C76.5766 41.7894 77.9944 40.7901 80.1812 39.0937C82.7766 37.0254 85.1557 34.9688 87.3185 32.9238C89.4092 30.9484 90.8871 29.3333 91.7522 28.0784C92.9538 26.382 93.5546 24.8017 93.5546 23.3377Z" stroke="#967BA6" stroke-width="0.177778" mask="url(#path-1-outside-1_18_2)"/>
<path d="M99.2069 39.3726C99.2069 39.512 99.1588 39.6398 99.0627 39.756C97.813 40.7785 96.7557 41.6151 95.8906 42.2658C95.0254 42.9165 94.3406 43.4045 93.8359 43.7299C91.4328 45.2869 89.258 46.0886 87.3114 46.1351C85.6533 46.1351 84.8122 45.3101 84.7882 43.6601C84.7882 42.6376 85.401 41.4408 86.6266 40.0697C87.9242 38.7683 89.0297 38.106 89.9429 38.0828C90.2553 38.0828 90.5316 38.199 90.7719 38.4314C90.9882 38.6173 91.1204 38.8497 91.1684 39.1285C91.1684 39.5468 90.9522 39.9651 90.5196 40.3834C90.2793 40.5694 90.051 40.7553 89.8347 40.9412C89.6184 41.1039 89.3901 41.2781 89.1498 41.4641C88.4289 42.0683 87.5037 42.6376 86.3742 43.1721C86.3502 43.7299 86.5905 44.1946 87.0952 44.5665C87.5037 44.8221 87.9483 44.9499 88.4289 44.9499C89.6785 44.9499 91.5409 44.1714 94.0161 42.6144C94.2564 42.4517 94.7731 42.0915 95.5661 41.5338C96.3592 40.976 97.4406 40.1975 98.8103 39.1983C98.8824 39.175 98.9665 39.1634 99.0627 39.1634C99.1348 39.1634 99.1828 39.2331 99.2069 39.3726ZM89.5824 39.512C89.5824 39.3958 89.4262 39.3028 89.1138 39.2331C88.7053 39.2331 88.1645 39.5933 87.4917 40.3137C86.8188 40.9644 86.4824 41.5454 86.4824 42.0566C86.6025 42.0566 86.8188 41.9986 87.1312 41.8824C88.6932 40.9993 89.5103 40.2092 89.5824 39.512Z" stroke="#967BA6" stroke-width="0.177778" mask="url(#path-1-outside-1_18_2)"/>
<path d="M110.222 39.3726C110.222 39.512 110.174 39.6398 110.078 39.756C107.29 41.9637 105.584 43.2651 104.959 43.6601C102.484 45.1939 99.7927 45.984 96.8849 46.0305C95.9958 46.0305 95.2869 45.8562 94.7582 45.5076C94.5659 45.4147 94.1334 45.0428 93.4605 44.3922C93.4605 44.2295 93.4845 44.1017 93.5326 44.0087C93.1241 44.2411 92.7396 44.4503 92.3791 44.6362C91.9946 44.8221 91.6221 44.9848 91.2616 45.1242C90.8531 45.1242 90.6368 45.0661 90.6128 44.9499C90.6128 44.8802 90.6489 44.7988 90.721 44.7059C90.769 44.6129 90.8531 44.4851 90.9733 44.3224C92.1027 43.7879 93.2683 43.1489 94.4698 42.4052C95.6473 41.6383 96.8729 40.7669 98.1466 39.7909C98.1466 39.7676 98.1586 39.7328 98.1826 39.6863C98.8555 39.175 99.5764 38.8962 100.345 38.8497C101.547 38.8497 102.148 39.3726 102.148 40.4183C102.148 41.1155 101.775 41.9405 101.03 42.8932C100.381 43.7531 99.7326 44.3689 99.0838 44.7407C100.574 44.7407 102.532 43.9971 104.959 42.5098C105.512 42.2077 106.185 41.7894 106.978 41.2549C107.771 40.6972 108.72 40.0116 109.826 39.1983C109.898 39.175 109.982 39.1634 110.078 39.1634C110.15 39.1634 110.198 39.2331 110.222 39.3726ZM100.418 40.8715C100.418 40.2905 100.105 40 99.4803 40C99.3361 40 99.2039 40 99.0838 40C98.9636 40 98.8675 40.0232 98.7954 40.0697C97.8822 40.8134 97.0411 41.4873 96.2721 42.0915C95.4791 42.6725 94.7462 43.1954 94.0733 43.6601C94.1934 43.6601 94.3016 43.6834 94.3977 43.7299C95.2148 44.2179 95.9117 44.4851 96.4884 44.5316C96.9931 44.5316 97.4857 44.427 97.9663 44.2179C98.447 43.9855 98.8915 43.6253 99.3001 43.1373C99.6605 42.7422 99.9249 42.3704 100.093 42.0218C100.261 41.65 100.369 41.2665 100.418 40.8715Z" stroke="#967BA6" stroke-width="0.177778" mask="url(#path-1-outside-1_18_2)"/>
<path d="M39.7181 13.7842C39.7181 14.0295 39.626 14.1521 39.4417 14.1521C39.0514 14.1521 38.6612 14.1463 38.2709 14.1346C37.8915 14.1229 37.5121 14.1171 37.1327 14.1171C36.7642 14.1171 36.3956 14.1229 36.027 14.1346C35.6585 14.158 35.2899 14.1697 34.9214 14.1697C34.813 14.1697 34.7371 14.1346 34.6937 14.0645C34.6504 13.9828 34.6287 13.8952 34.6287 13.8017C34.6287 13.7083 34.6612 13.6382 34.7262 13.5915C34.8021 13.5331 34.878 13.5039 34.9539 13.5039C35.0514 13.5039 35.149 13.5097 35.2466 13.5214C35.3441 13.5331 35.4417 13.5389 35.5392 13.5389C35.5609 13.5389 35.588 13.5389 35.6205 13.5389C35.6531 13.5389 35.6802 13.5389 35.7018 13.5389C35.8861 13.5155 35.9837 13.4046 35.9945 13.206C36.0162 12.9958 36.027 12.8206 36.027 12.6804V3.56957C35.4092 5.2282 34.7804 6.881 34.1409 8.52796C33.5122 10.1632 32.8943 11.816 32.2872 13.4863H31.0189C30.4011 11.7576 29.7615 10.0406 29.1002 8.33523C28.4498 6.62987 27.8103 4.91283 27.1816 3.18411C27.1816 4.78434 27.1924 6.38458 27.2141 7.98481C27.2358 9.57336 27.2466 11.1678 27.2466 12.768C27.2466 12.9082 27.252 13.0775 27.2629 13.2761C27.2845 13.463 27.3875 13.5564 27.5718 13.5564C27.7127 13.5564 27.8482 13.5506 27.9783 13.5389C28.1084 13.5272 28.2439 13.5214 28.3848 13.5214C28.4607 13.5214 28.5257 13.5564 28.5799 13.6265C28.6341 13.6849 28.6612 13.755 28.6612 13.8368C28.6612 13.8952 28.6395 13.9652 28.5962 14.047C28.5528 14.1171 28.4986 14.1521 28.4336 14.1521C28.2385 14.1521 28.0433 14.1463 27.8482 14.1346C27.6531 14.1229 27.458 14.1171 27.2629 14.1171C26.916 14.1171 26.5637 14.1229 26.206 14.1346C25.8482 14.1463 25.4959 14.1521 25.149 14.1521C25.0406 14.1521 24.9702 14.1229 24.9377 14.0645C24.9051 13.9944 24.8889 13.9068 24.8889 13.8017C24.8889 13.7083 24.9214 13.6382 24.9864 13.5915C25.0623 13.5447 25.1328 13.5214 25.1978 13.5214C25.2954 13.5214 25.3929 13.5272 25.4905 13.5389C25.5989 13.5506 25.7019 13.5564 25.7995 13.5564C25.9837 13.5564 26.1138 13.5331 26.1897 13.4863C26.2764 13.4279 26.3198 13.2878 26.3198 13.0658C26.3198 11.2904 26.3252 9.51496 26.336 7.73952C26.3577 5.9524 26.3686 4.17112 26.3686 2.39567C26.3686 2.20879 26.336 2.07446 26.271 1.9927C26.2168 1.89925 26.0976 1.85253 25.9133 1.85253C25.8049 1.85253 25.6965 1.85837 25.5881 1.87005C25.4797 1.88173 25.3713 1.88757 25.2629 1.88757C25.1761 1.88757 25.1003 1.85253 25.0352 1.78245C24.9702 1.71236 24.9377 1.6306 24.9377 1.53716C24.9377 1.31522 25.0461 1.20426 25.2629 1.20426C25.523 1.20426 25.7832 1.2101 26.0434 1.22178C26.3144 1.23346 26.5799 1.2393 26.8401 1.2393C27.1545 1.2393 27.4688 1.2393 27.7832 1.2393C28.1084 1.2393 28.4282 1.22178 28.7425 1.18674L32.3685 10.8582C32.9539 9.25799 33.5664 7.66944 34.2059 6.09256C34.8563 4.50401 35.4254 2.88626 35.9132 1.2393C36.1625 1.25098 36.4119 1.26266 36.6612 1.27434C36.9214 1.27434 37.1815 1.27434 37.4417 1.27434C37.7777 1.27434 38.1138 1.26266 38.4498 1.2393C38.7967 1.21594 39.1381 1.20426 39.4742 1.20426C39.5609 1.20426 39.6205 1.24514 39.6531 1.32691C39.6856 1.39699 39.7018 1.46707 39.7018 1.53716C39.7018 1.60724 39.6856 1.689 39.6531 1.78245C39.6205 1.86421 39.5609 1.90509 39.4742 1.90509C39.3224 1.90509 39.1652 1.90509 39.0026 1.90509C38.8509 1.89341 38.6991 1.88757 38.5474 1.88757C38.439 1.88757 38.3577 1.94013 38.3035 2.04526C38.2601 2.1387 38.2384 2.23799 38.2384 2.34311C38.2384 3.02058 38.233 3.70973 38.2222 4.41057C38.2222 5.09972 38.2222 5.78887 38.2222 6.47802C38.2222 7.50591 38.2222 8.5338 38.2222 9.56168C38.233 10.5896 38.2384 11.6175 38.2384 12.6453C38.2384 12.7505 38.2438 12.8731 38.2547 13.0133C38.2764 13.1534 38.3143 13.2819 38.3685 13.3987C38.4335 13.5039 38.5311 13.5564 38.6612 13.5564C38.7913 13.5564 38.9213 13.5506 39.0514 13.5389C39.1815 13.5272 39.317 13.5214 39.4579 13.5214C39.523 13.5214 39.5826 13.5447 39.6368 13.5915C39.691 13.6382 39.7181 13.7024 39.7181 13.7842Z" fill="#967BA6"/>
<path d="M47.5598 8.89589C47.2563 7.90305 46.9419 6.91604 46.6167 5.93488C46.3023 4.95371 45.9988 3.96671 45.7061 2.97386C45.3918 3.96671 45.0774 4.95371 44.763 5.93488C44.4595 6.91604 44.1506 7.90305 43.8362 8.89589H47.5598ZM52.4378 13.9244C52.4378 14.0996 52.3348 14.1872 52.1289 14.1872C52.0638 14.1872 51.9988 14.1872 51.9337 14.1872C51.8687 14.1872 51.7982 14.1813 51.7224 14.1697C51.4514 14.1463 51.1695 14.1346 50.8768 14.1346C50.595 14.1346 50.3131 14.1346 50.0313 14.1346C49.6736 14.1346 49.3159 14.1346 48.9581 14.1346C48.6004 14.1346 48.2373 14.1463 47.8687 14.1697C47.8254 14.1813 47.782 14.1872 47.7386 14.1872C47.6953 14.1872 47.6519 14.1872 47.6086 14.1872C47.4568 14.1872 47.3809 14.1054 47.3809 13.9419C47.3809 13.8017 47.4243 13.72 47.511 13.6966C47.6086 13.6616 47.717 13.6499 47.8362 13.6616C47.9554 13.6732 48.053 13.6791 48.1289 13.6791C48.324 13.6791 48.4649 13.6382 48.5516 13.5564C48.6492 13.463 48.698 13.3053 48.698 13.0834C48.698 12.9549 48.66 12.7329 48.5842 12.4176C48.5083 12.0905 48.4161 11.7343 48.3077 11.3488C48.1993 10.9633 48.0909 10.6071 47.9825 10.28C47.885 9.9413 47.8145 9.70185 47.7712 9.56168H43.6248C43.6032 9.63177 43.5544 9.78945 43.4785 10.0347C43.4026 10.28 43.3105 10.5662 43.2021 10.8933C43.1045 11.2203 43.0069 11.5415 42.9094 11.8569C42.8118 12.1723 42.7305 12.4468 42.6655 12.6804C42.6004 12.9023 42.5679 13.0366 42.5679 13.0834C42.5679 13.3053 42.6221 13.4571 42.7305 13.5389C42.8389 13.6207 42.9744 13.6674 43.137 13.6791C43.2996 13.6791 43.4568 13.6791 43.6086 13.6791C43.6628 13.6791 43.7061 13.72 43.7387 13.8017C43.7712 13.8718 43.7874 13.936 43.7874 13.9944C43.7874 14.0645 43.7603 14.1171 43.7061 14.1521C43.6628 14.1872 43.614 14.2047 43.5598 14.2047C43.2021 14.2047 42.8443 14.193 42.4866 14.1697C42.1397 14.158 41.7929 14.1521 41.446 14.1521C41.2725 14.1521 41.0991 14.158 40.9257 14.1697C40.7522 14.1813 40.5734 14.1872 40.3891 14.1872C40.3349 14.1872 40.2807 14.1638 40.2265 14.1171C40.1723 14.0704 40.1452 14.0178 40.1452 13.9594C40.1452 13.8309 40.1885 13.7492 40.2753 13.7141C40.362 13.6791 40.4595 13.6674 40.5679 13.6791C40.6872 13.6791 40.7847 13.6791 40.8606 13.6791C41.0015 13.6791 41.1154 13.6207 41.2021 13.5039C41.2996 13.3754 41.3701 13.2527 41.4135 13.1359C42.053 11.4072 42.6601 9.67265 43.2346 7.93225C43.8091 6.18017 44.3674 4.42225 44.9094 2.65849C44.9527 2.53 45.0069 2.34895 45.072 2.11534C45.137 1.88173 45.1695 1.70652 45.1695 1.58972C45.1695 1.51963 45.1533 1.46123 45.1208 1.41451C45.0991 1.35611 45.0882 1.30354 45.0882 1.25682C45.0882 1.2101 45.1424 1.17506 45.2508 1.1517C45.3592 1.12834 45.4731 1.11081 45.5923 1.09913C45.7115 1.08745 45.7874 1.08161 45.8199 1.08161C46.0476 1.04657 46.2698 1.01153 46.4866 0.976489C46.7142 0.941448 46.9419 0.912246 47.1695 0.888885L51.1533 12.9958C51.24 13.2761 51.3538 13.4571 51.4947 13.5389C51.6465 13.609 51.847 13.644 52.0963 13.644C52.1939 13.644 52.2752 13.6616 52.3402 13.6966C52.4053 13.72 52.4378 13.7959 52.4378 13.9244Z" fill="#967BA6"/>
<path d="M64.9811 8.77325C64.9811 8.86669 64.9594 8.9543 64.916 9.03606C64.8835 9.11782 64.813 9.15871 64.7046 9.15871H63.8754V12.7855C63.496 12.9257 63.122 13.0834 62.7534 13.2586C62.3849 13.4221 62.0163 13.5973 61.6477 13.7842C61.2792 13.9711 60.8781 14.0879 60.4445 14.1346C60.0217 14.1813 59.6044 14.2047 59.1925 14.2047C58.8348 14.2047 58.4499 14.1638 58.038 14.0821C57.6261 14.0003 57.225 13.8835 56.8348 13.7316C56.4445 13.5681 56.1031 13.3754 55.8104 13.1534C55.0191 12.5344 54.4391 11.7459 54.0705 10.7881C53.7128 9.83034 53.534 8.84333 53.534 7.82712C53.534 6.90436 53.664 6.04 53.9242 5.23404C54.1952 4.42809 54.58 3.72141 55.0787 3.11403C55.5882 2.50664 56.1952 2.03358 56.8998 1.69484C57.6152 1.34443 58.4174 1.16922 59.3063 1.16922C60.0109 1.16922 60.7047 1.28602 61.3876 1.51963C61.4851 1.55468 61.6315 1.61308 61.8266 1.69484C62.0326 1.77661 62.2331 1.85837 62.4282 1.94013C62.6342 2.01022 62.7697 2.04526 62.8347 2.04526C62.9973 2.04526 63.1112 1.98102 63.1762 1.85253C63.2412 1.72404 63.3009 1.59556 63.3551 1.46707C63.4201 1.33859 63.5122 1.27434 63.6315 1.27434C63.6965 1.27434 63.7561 1.29186 63.8103 1.32691C63.8754 1.36195 63.9079 1.42035 63.9079 1.50211C63.9079 2.03942 63.9133 2.57088 63.9242 3.09651C63.9458 3.62213 63.9567 4.1536 63.9567 4.6909C63.9567 4.85443 63.9025 4.98875 63.7941 5.09388C63.6965 5.199 63.5719 5.25157 63.4201 5.25157C63.2358 5.25157 63.1057 5.21068 63.0299 5.12892C62.9648 5.03548 62.9052 4.90115 62.851 4.72594C62.58 3.82654 62.1572 3.10235 61.5827 2.55336C61.019 2.00438 60.2819 1.72988 59.3713 1.72988C58.9377 1.72988 58.5421 1.84085 58.1843 2.06278C57.8266 2.28471 57.5123 2.57672 57.2413 2.93882C56.9811 3.28924 56.7589 3.67469 56.5746 4.09519C56.3903 4.51569 56.2494 4.92451 56.1518 5.32165C56.0543 5.71879 55.9838 6.12761 55.9405 6.54811C55.8971 6.9686 55.8754 7.3891 55.8754 7.8096C55.8754 8.21842 55.8971 8.62724 55.9405 9.03606C55.9838 9.44488 56.0597 9.84786 56.1681 10.245C56.309 10.7823 56.5204 11.2962 56.8022 11.7868C57.0841 12.2774 57.4364 12.6804 57.8591 12.9958C58.2927 13.3111 58.7914 13.4688 59.3551 13.4688C59.561 13.4688 59.7941 13.4396 60.0543 13.3812C60.3253 13.3228 60.58 13.2352 60.8185 13.1184C61.0678 13.0016 61.2738 12.8498 61.4364 12.6629C61.599 12.4643 61.6803 12.2248 61.6803 11.9445V9.63177C61.6803 9.53832 61.6532 9.44488 61.599 9.35143C61.5556 9.25799 61.4851 9.21127 61.3876 9.21127C61.2358 9.21127 61.0786 9.22295 60.916 9.24631C60.7643 9.25799 60.6125 9.26383 60.4608 9.26383C60.374 9.26383 60.2982 9.21127 60.2331 9.10614C60.1789 8.98934 60.1518 8.89005 60.1518 8.80829C60.1518 8.72653 60.1843 8.65644 60.2494 8.59804C60.3144 8.53964 60.3849 8.51044 60.4608 8.51044C60.6125 8.51044 60.7643 8.51628 60.916 8.52796C61.0786 8.52796 61.2358 8.52796 61.3876 8.52796C61.7561 8.52796 62.1193 8.52796 62.477 8.52796C62.8456 8.51628 63.2141 8.5046 63.5827 8.49291C63.7778 8.48123 63.9729 8.46955 64.1681 8.45787C64.3632 8.43451 64.5583 8.42283 64.7534 8.42283C64.8401 8.42283 64.8998 8.46371 64.9323 8.54548C64.9648 8.61556 64.9811 8.69148 64.9811 8.77325Z" fill="#967BA6"/>
<path d="M70.9363 1.60724C70.9363 1.80581 70.8496 1.90509 70.6762 1.90509C70.5461 1.90509 70.4106 1.90509 70.2697 1.90509C70.1396 1.89341 70.0095 1.88757 69.8794 1.88757C69.771 1.88757 69.6951 1.94013 69.6518 2.04526C69.6084 2.1387 69.5867 2.23799 69.5867 2.34311C69.5867 2.75193 69.5813 3.16659 69.5705 3.58709C69.5705 3.99591 69.5705 4.40473 69.5705 4.81355C69.5705 6.0984 69.5705 7.3891 69.5705 8.68564C69.5813 9.9705 69.5867 11.2554 69.5867 12.5402C69.5867 12.622 69.5813 12.7505 69.5705 12.9257C69.5596 13.1009 69.5705 13.2644 69.603 13.4163C69.6464 13.5564 69.7277 13.6265 69.8469 13.6265C69.9878 13.6265 70.1287 13.6207 70.2697 13.609C70.4106 13.5973 70.5515 13.5915 70.6924 13.5915C70.7683 13.5915 70.8225 13.6265 70.855 13.6966C70.8875 13.755 70.9038 13.8251 70.9038 13.9068C70.9038 13.9886 70.8767 14.0587 70.8225 14.1171C70.7791 14.1872 70.7141 14.2222 70.6274 14.2222C70.2588 14.2222 69.8903 14.2164 69.5217 14.2047C69.164 14.193 68.8008 14.1872 68.4323 14.1872C68.0637 14.1872 67.6951 14.193 67.3266 14.2047C66.958 14.2164 66.5895 14.2222 66.2209 14.2222C66.1125 14.2222 66.042 14.1989 66.0095 14.1521C65.977 14.1054 65.9607 14.0295 65.9607 13.9244C65.9607 13.8309 65.977 13.755 66.0095 13.6966C66.0529 13.6265 66.1179 13.5915 66.2046 13.5915C66.3239 13.5915 66.4431 13.5973 66.5624 13.609C66.6816 13.6207 66.7954 13.6265 66.9038 13.6265C67.0556 13.6265 67.1586 13.5739 67.2128 13.4688C67.267 13.3637 67.2995 13.2411 67.3103 13.1009C67.3212 12.949 67.3266 12.8206 67.3266 12.7154L67.3428 2.65849C67.3428 2.55336 67.332 2.40151 67.3103 2.20295C67.2886 1.9927 67.2128 1.88173 67.0827 1.87005C67.0502 1.87005 67.0176 1.87005 66.9851 1.87005C66.9634 1.87005 66.9363 1.87005 66.9038 1.87005C66.7954 1.87005 66.687 1.87589 66.5786 1.88757C66.4811 1.89925 66.3781 1.90509 66.2697 1.90509C66.0637 1.90509 65.9607 1.79413 65.9607 1.5722C65.9607 1.49043 65.9824 1.42035 66.0258 1.36195C66.08 1.30354 66.145 1.27434 66.2209 1.27434C66.687 1.27434 67.1477 1.28602 67.603 1.30938C68.0691 1.33275 68.5353 1.34443 69.0014 1.34443C69.2832 1.34443 69.5651 1.33275 69.8469 1.30938C70.1396 1.28602 70.4268 1.27434 70.7087 1.27434C70.7954 1.27434 70.855 1.30938 70.8875 1.37947C70.9201 1.44955 70.9363 1.52547 70.9363 1.60724Z" fill="#967BA6"/>
<path d="M83.5556 11.1561C83.5556 11.2145 83.5285 11.2962 83.4743 11.4014C83.4201 11.5065 83.3821 11.5883 83.3604 11.6467C83.2195 11.9153 83.0027 12.1956 82.71 12.4877C82.4173 12.7797 82.1463 13.0191 81.897 13.206C81.3875 13.5915 80.851 13.8426 80.2873 13.9594C79.7236 14.0762 79.1382 14.1346 78.5312 14.1346C77.3496 14.1346 76.3415 13.8718 75.5068 13.3462C74.6721 12.8089 74.0326 12.0672 73.5881 11.121C73.1545 10.1632 72.9377 9.05942 72.9377 7.8096C72.9377 6.57147 73.1491 5.45598 73.5719 4.46313C73.9946 3.47028 74.6179 2.68185 75.4418 2.09782C76.2765 1.50211 77.2954 1.20426 78.4987 1.20426C79.0407 1.20426 79.5014 1.27434 79.8808 1.41451C80.2602 1.55468 80.6884 1.7182 81.1653 1.90509C81.393 1.98686 81.6206 2.0511 81.8482 2.09782C82.0759 2.13286 82.3089 2.16206 82.5474 2.18543C82.5583 2.4424 82.5745 2.70521 82.5962 2.97386C82.6179 3.23083 82.645 3.49364 82.6775 3.7623C82.6992 3.98423 82.7371 4.212 82.7913 4.44561C82.8455 4.67922 82.8726 4.91283 82.8726 5.14644C82.8726 5.36837 82.7967 5.5319 82.645 5.63702C82.5041 5.74215 82.3415 5.79471 82.1572 5.79471C81.8537 5.79471 81.6423 5.66038 81.523 5.39173C81.4905 5.29829 81.4688 5.199 81.458 5.09388C81.4472 4.97707 81.4309 4.87779 81.4092 4.79602C81.3333 4.42225 81.1978 4.01927 81.0027 3.58709C80.8184 3.14323 80.5962 2.79281 80.3361 2.53584C80.1301 2.33727 79.8483 2.16206 79.4905 2.01022C79.1328 1.84669 78.813 1.76492 78.5312 1.76492C78.2602 1.76492 78.0054 1.82917 77.767 1.95765C77.5393 2.08614 77.3171 2.24383 77.1003 2.43072C76.6342 2.85122 76.2656 3.35348 75.9946 3.9375C75.7236 4.52153 75.5339 5.14644 75.4255 5.81223C75.3171 6.46634 75.2629 7.10877 75.2629 7.73952C75.2629 8.16002 75.2846 8.58052 75.3279 9.00102C75.3821 9.40984 75.4634 9.81866 75.5718 10.2275C75.7236 10.7765 75.9404 11.2962 76.2223 11.7868C76.5149 12.2657 76.8727 12.657 77.2954 12.9607C77.729 13.2527 78.2277 13.3987 78.7913 13.3987C79.5935 13.3987 80.3198 13.1826 80.9702 12.7505C81.6314 12.3183 82.1789 11.7518 82.6125 11.051C82.6775 10.9341 82.7426 10.8349 82.8076 10.7531C82.8835 10.6597 82.9919 10.6129 83.1328 10.6129C83.2737 10.6129 83.3767 10.6713 83.4417 10.7881C83.5176 10.9049 83.5556 11.0276 83.5556 11.1561Z" fill="#967BA6"/>
</svg>
